<svg width="28" height="29" viewBox="0 0 28 29" fill="none" xmlns="http://www.w3.org/2000/svg">
<path d="M8.75 12.6172C8.71354 12.6172 8.67708 12.6172 8.64062 12.6172C8.60417 12.6172 8.56771 12.599 8.53125 12.5625L3.88281 9.99219C3.77344 9.95573 3.70052 9.90104 3.66406 9.82812C3.6276 9.75521 3.60938 9.66406 3.60938 9.55469V5.89062C3.60938 5.78125 3.64583 5.6901 3.71875 5.61719C3.82812 5.50781 3.95573 5.45312 4.10156 5.45312C4.21094 5.45312 4.30208 5.50781 4.375 5.61719C4.48438 5.6901 4.53906 5.78125 4.53906 5.89062V9.28125L8.75 11.6328L12.9609 9.28125V4.6875L9.29688 2.77344C9.1875 2.70052 9.11458 2.60938 9.07812 2.5C9.04167 2.35417 9.0599 2.22656 9.13281 2.11719C9.16927 2.00781 9.24219 1.9349 9.35156 1.89844C9.4974 1.86198 9.625 1.88021 9.73438 1.95312L13.6172 3.97656C13.6901 4.01302 13.7448 4.06771 13.7812 4.14062C13.8542 4.21354 13.8906 4.28646 13.8906 4.35938V9.55469C13.8906 9.66406 13.8724 9.75521 13.8359 9.82812C13.7995 9.90104 13.7266 9.95573 13.6172 9.99219L8.96875 12.5625C8.93229 12.599 8.89583 12.6172 8.85938 12.6172C8.82292 12.6172 8.78646 12.6172 8.75 12.6172ZM19.25 12.6172C19.2135 12.6172 19.1771 12.6172 19.1406 12.6172C19.1042 12.6172 19.0859 12.599 19.0859 12.5625L13.2344 9.99219C13.1615 9.95573 13.0885 9.90104 13.0156 9.82812C12.9792 9.75521 12.9609 9.66406 12.9609 9.55469V4.35938C12.9609 4.28646 12.9792 4.21354 13.0156 4.14062C13.0521 4.06771 13.1068 4.01302 13.1797 3.97656L17.6641 1.51562C17.7734 1.47917 17.8828 1.47917 17.9922 1.51562C18.138 1.55208 18.2292 1.625 18.2656 1.73438C18.3385 1.84375 18.3568 1.97135 18.3203 2.11719C18.2839 2.22656 18.2109 2.29948 18.1016 2.33594L13.8906 4.63281V9.28125L19.25 11.6328L23.4609 9.28125V5.83594C23.4609 5.72656 23.4974 5.63542 23.5703 5.5625C23.6797 5.45312 23.7891 5.39844 23.8984 5.39844C24.0443 5.39844 24.1536 5.45312 24.2266 5.5625C24.3359 5.63542 24.3906 5.72656 24.3906 5.83594V9.55469C24.3906 9.66406 24.3724 9.75521 24.3359 9.82812C24.2995 9.90104 24.2266 9.95573 24.1172 9.99219L19.4688 12.5625C19.4323 12.599 19.3958 12.6172 19.3594 12.6172C19.3229 12.6172 19.2865 12.6172 19.25 12.6172ZM9.57031 27.7109C9.46094 27.7109 9.36979 27.6927 9.29688 27.6562C9.22396 27.6198 9.16927 27.5651 9.13281 27.4922C9.09635 27.3828 9.07812 27.2552 9.07812 27.1094C9.11458 27 9.20573 26.9089 9.35156 26.8359L12.9609 24.8672V20.2188L8.75 17.8672L4.53906 20.2188V23.5547C4.53906 23.6641 4.48438 23.7734 4.375 23.8828C4.30208 23.9557 4.21094 23.9922 4.10156 23.9922C3.95573 23.9922 3.82812 23.9557 3.71875 23.8828C3.64583 23.7734 3.60938 23.6641 3.60938 23.5547V19.9453C3.60938 19.8359 3.6276 19.7448 3.66406 19.6719C3.70052 19.599 3.77344 19.5443 3.88281 19.5078L8.53125 16.9375C8.60417 16.901 8.67708 16.8828 8.75 16.8828C8.82292 16.8828 8.89583 16.901 8.96875 16.9375L13.6172 19.5078C13.6901 19.5443 13.7448 19.599 13.7812 19.6719C13.8542 19.7448 13.8906 19.8359 13.8906 19.9453V25.1406C13.8906 25.2135 13.8542 25.2865 13.7812 25.3594C13.7448 25.4323 13.6901 25.487 13.6172 25.5234L9.78906 27.6562C9.7526 27.6927 9.71615 27.7109 9.67969 27.7109C9.64323 27.7109 9.60677 27.7109 9.57031 27.7109ZM17.9922 27.9297C17.9557 27.9297 17.9193 27.9297 17.8828 27.9297C17.8464 27.9297 17.8099 27.9115 17.7734 27.875L13.1797 25.5234C13.1068 25.487 13.0521 25.4323 13.0156 25.3594C12.9792 25.2865 12.9609 25.2135 12.9609 25.1406V19.9453C12.9609 19.8359 12.9792 19.7448 13.0156 19.6719C13.0885 19.599 13.1615 19.5443 13.2344 19.5078L19.0859 16.9375C19.1224 16.901 19.1771 16.8828 19.25 16.8828C19.3229 16.8828 19.3958 16.901 19.4688 16.9375L24.1172 19.5078C24.1901 19.5443 24.2448 19.599 24.2812 19.6719C24.3542 19.7448 24.3906 19.8359 24.3906 19.9453V23.5547C24.3906 23.7005 24.3359 23.8281 24.2266 23.9375C24.1536 24.0104 24.0443 24.0469 23.8984 24.0469C23.7891 24.0469 23.6797 24.0104 23.5703 23.9375C23.4974 23.8281 23.4609 23.7005 23.4609 23.5547V20.2188L19.25 17.8672L13.8906 20.2188V24.8125L18.2109 27.0547C18.3203 27.1276 18.3932 27.2188 18.4297 27.3281C18.4661 27.474 18.4479 27.6016 18.375 27.7109C18.3385 27.7839 18.2839 27.8385 18.2109 27.875C18.138 27.9115 18.0651 27.9297 17.9922 27.9297ZM4.04688 20.3828C4.01042 20.3828 3.95573 20.3828 3.88281 20.3828C3.84635 20.3828 3.82812 20.3646 3.82812 20.3281L0.929688 18.7422C0.783854 18.6693 0.692708 18.5781 0.65625 18.4688C0.65625 18.3229 0.674479 18.1953 0.710938 18.0859C0.783854 17.9766 0.875 17.9036 0.984375 17.8672C1.13021 17.8307 1.25781 17.849 1.36719 17.9219L4.04688 19.3984L8.20312 17.0469V12.4531L4.04688 10.1016L1.42188 11.5781C1.3125 11.651 1.1849 11.6693 1.03906 11.6328C0.929688 11.5964 0.856771 11.5234 0.820312 11.4141C0.747396 11.3047 0.729167 11.1953 0.765625 11.0859C0.802083 10.9401 0.875 10.8307 0.984375 10.7578L3.77344 9.17188C3.84635 9.13542 3.91927 9.11719 3.99219 9.11719C4.10156 9.11719 4.19271 9.13542 4.26562 9.17188L8.85938 11.7422C8.93229 11.7786 8.98698 11.8333 9.02344 11.9062C9.09635 11.9792 9.13281 12.0703 9.13281 12.1797V17.3203C9.13281 17.4297 9.09635 17.5208 9.02344 17.5938C8.98698 17.6667 8.93229 17.7214 8.85938 17.7578L4.26562 20.3281C4.22917 20.3646 4.19271 20.3828 4.15625 20.3828C4.11979 20.3828 4.08333 20.3828 4.04688 20.3828ZM23.8984 20.3828C23.862 20.3828 23.8255 20.3828 23.7891 20.3828C23.7526 20.3828 23.7161 20.3646 23.6797 20.3281L19.0312 17.7578C18.9583 17.7214 18.8854 17.6667 18.8125 17.5938C18.776 17.5208 18.7578 17.4297 18.7578 17.3203V12.1797C18.7578 12.0703 18.776 11.9792 18.8125 11.9062C18.8854 11.8333 18.9583 11.7786 19.0312 11.7422L23.6797 9.17188C23.7526 9.13542 23.8255 9.11719 23.8984 9.11719C24.0078 9.11719 24.0807 9.13542 24.1172 9.17188L27.125 10.8125C27.2344 10.8854 27.3073 10.9948 27.3438 11.1406C27.3802 11.25 27.362 11.3594 27.2891 11.4688C27.2526 11.5781 27.1615 11.651 27.0156 11.6875C26.9062 11.724 26.7969 11.7057 26.6875 11.6328L23.8984 10.1016L19.6875 12.4531V17.0469L23.8984 19.3984L26.6328 17.9219C26.7422 17.849 26.8516 17.8307 26.9609 17.8672C27.1068 17.9036 27.1979 17.9766 27.2344 18.0859C27.3073 18.1953 27.3255 18.3229 27.2891 18.4688C27.2526 18.5781 27.1797 18.651 27.0703 18.6875L24.1172 20.3281C24.0807 20.3646 24.0443 20.3828 24.0078 20.3828C23.9714 20.3828 23.9349 20.3828 23.8984 20.3828ZM14 1.67969C15.7865 1.67969 17.4635 2.02604 19.0312 2.71875C20.6354 3.41146 22.0391 4.34115 23.2422 5.50781C24.4089 6.71094 25.3385 8.11458 26.0312 9.71875C26.724 11.2865 27.0703 12.9635 27.0703 14.75C27.0703 16.5365 26.724 18.2318 26.0312 19.8359C25.3385 21.4036 24.4089 22.7891 23.2422 23.9922C22.0391 25.1589 20.6354 26.0885 19.0312 26.7812C17.4635 27.474 15.7865 27.8203 14 27.8203C12.2135 27.8203 10.5182 27.474 8.91406 26.7812C7.34635 26.0885 5.96094 25.1589 4.75781 23.9922C3.59115 22.7891 2.66146 21.4036 1.96875 19.8359C1.27604 18.2318 0.929688 16.5365 0.929688 14.75C0.929688 12.9635 1.27604 11.2865 1.96875 9.71875C2.66146 8.11458 3.59115 6.71094 4.75781 5.50781C5.96094 4.34115 7.34635 3.41146 8.91406 2.71875C10.5182 2.02604 12.2135 1.67969 14 1.67969ZM14 0.75C12.0677 0.75 10.2448 1.11458 8.53125 1.84375C6.85417 2.57292 5.3776 3.57552 4.10156 4.85156C2.82552 6.1276 1.82292 7.6224 1.09375 9.33594C0.364583 11.013 0 12.8177 0 14.75C0 16.6823 0.364583 18.5052 1.09375 20.2188C1.82292 21.8958 2.82552 23.3724 4.10156 24.6484C5.3776 25.9245 6.85417 26.9271 8.53125 27.6562C10.2448 28.3854 12.0677 28.75 14 28.75C15.9323 28.75 17.737 28.3854 19.4141 27.6562C21.1276 26.9271 22.6224 25.9245 23.8984 24.6484C25.1745 23.3724 26.1771 21.8958 26.9062 20.2188C27.6354 18.5052 28 16.6823 28 14.75C28 12.8177 27.6354 11.013 26.9062 9.33594C26.1771 7.6224 25.1745 6.1276 23.8984 4.85156C22.6224 3.57552 21.1276 2.57292 19.4141 1.84375C17.737 1.11458 15.9323 0.75 14 0.75Z" fill="#2F80ED"/>
</svg>
